HIERARCHY
ROOT Hips
{
    OFFSET   0.000000   0.000000   0.000000
    CHANNELS 6 Xposition Yposition Zposition Zrotation Xrotation Yrotation
    JOINT Chest
    {
        OFFSET   0.000000   8.007230   0.000000
        CHANNELS 3 Zrotation Xrotation Yrotation
        JOINT Chest2
        {
            OFFSET   0.000000  22.077100   0.000000
            CHANNELS 3 Zrotation Xrotation Yrotation
            JOINT Neck
            {
                OFFSET   0.000000  23.254700   0.000000
                CHANNELS 3 Zrotation Xrotation Yrotation
                JOINT Head
                {
                    OFFSET   0.000010  14.370000   1.956610
                    CHANNELS 3 Zrotation Xrotation Yrotation
                    End Site
                    {
                        OFFSET   0.000000  19.566000   0.000000
                    }
                }
            }
            JOINT LeftCollar
            {
                OFFSET   3.911900  19.017000  -0.467063
                CHANNELS 3 Zrotation Xrotation Yrotation
                JOINT LeftShoulder
                {
                    OFFSET  10.383700   0.000000   0.000000
                    CHANNELS 3 Zrotation Xrotation Yrotation
                    JOINT LeftElbow
                    {
                        OFFSET  26.662100   0.001671   0.000522
                        CHANNELS 3 Zrotation Xrotation Yrotation
                        JOINT LeftWrist
                        {
                            OFFSET  28.869000   0.000037  -0.000114
                            CHANNELS 3 Zrotation Xrotation Yrotation
                            JOINT LeftFinger0
                            {
                                OFFSET   2.044650  -2.323450   3.252850
                                CHANNELS 3 Zrotation Xrotation Yrotation
                                JOINT LeftFinger01
                                {
                                    OFFSET   3.088140   0.000000   0.000000
                                    CHANNELS 3 Zrotation Xrotation Yrotation
                                    JOINT LeftFinger02
                                    {
                                        OFFSET   2.639460   0.000000   0.000000
                                        CHANNELS 3 Zrotation Xrotation Yrotation
                                        End Site
                                        {
                                            OFFSET   2.582190   0.000000   0.000000
                                        }
                                    }
                                }
                            }
                            JOINT LeftFinger1
                            {
                                OFFSET   8.364480   0.000000   3.252850
                                CHANNELS 3 Zrotation Xrotation Yrotation
                                JOINT LeftFinger11
                                {
                                    OFFSET   4.646930   0.000000   0.000000
                                    CHANNELS 3 Zrotation Xrotation Yrotation
                                    JOINT LeftFinger12
                                    {
                                        OFFSET   2.323470   0.000000   0.000000
                                        CHANNELS 3 Zrotation Xrotation Yrotation
                                        End Site
                                        {
                                            OFFSET   2.273050   0.000000   0.000000
                                        }
                                    }
                                }
                            }
                            JOINT LeftFinger2
                            {
                                OFFSET   8.364490   0.000016   1.078090
                                CHANNELS 3 Zrotation Xrotation Yrotation
                                JOINT LeftFinger21
                                {
                                    OFFSET   5.111620   0.000000   0.000000
                                    CHANNELS 3 Zrotation Xrotation Yrotation
                                    JOINT LeftFinger22
                                    {
                                        OFFSET   2.788150   0.000013   0.000000
                                        CHANNELS 3 Zrotation Xrotation Yrotation
                                        End Site
                                        {
                                            OFFSET   2.727660   0.000000   0.000000
                                        }
                                    }
                                }
                            }
                            JOINT LeftFinger3
                            {
                                OFFSET   7.899780   0.000016  -1.078090
                                CHANNELS 3 Zrotation Xrotation Yrotation
                                JOINT LeftFinger31
                                {
                                    OFFSET   4.646930   0.000000   0.000000
                                    CHANNELS 3 Zrotation Xrotation Yrotation
                                    JOINT LeftFinger32
                                    {
                                        OFFSET   2.323470   0.000000   0.000000
                                        CHANNELS 3 Zrotation Xrotation Yrotation
                                        End Site
                                        {
                                            OFFSET   2.273050   0.000000   0.000000
                                        }
                                    }
                                }
                            }
                            JOINT LeftFinger4
                            {
                                OFFSET   7.435080   0.000000  -3.252850
                                CHANNELS 3 Zrotation Xrotation Yrotation
                                JOINT LeftFinger41
                                {
                                    OFFSET   3.717550   0.000000   0.000000
                                    CHANNELS 3 Zrotation Xrotation Yrotation
                                    JOINT LeftFinger42
                                    {
                                        OFFSET   1.858760   0.000000   0.000000
                                        CHANNELS 3 Zrotation Xrotation Yrotation
                                        End Site
                                        {
                                            OFFSET   1.818440   0.000000   0.000000
                                        }
                                    }
                                }
                            }
                        }
                    }
                }
            }
            JOINT RightCollar
            {
                OFFSET  -3.911900  19.017000  -0.467064
                CHANNELS 3 Zrotation Xrotation Yrotation
                JOINT RightShoulder
                {
                    OFFSET -10.383700   0.000000   0.000000
                    CHANNELS 3 Zrotation Xrotation Yrotation
                    JOINT RightElbow
                    {
                        OFFSET -26.662100   0.001633   0.000260
                        CHANNELS 3 Zrotation Xrotation Yrotation
                        JOINT RightWrist
                        {
                            OFFSET -28.869000  -0.000045  -0.000080
                            CHANNELS 3 Zrotation Xrotation Yrotation
                            JOINT RightFinger0
                            {
                                OFFSET  -2.044660  -2.323490   3.252850
                                CHANNELS 3 Zrotation Xrotation Yrotation
                                JOINT RightFinger01
                                {
                                    OFFSET  -3.088140   0.000000   0.000000
                                    CHANNELS 3 Zrotation Xrotation Yrotation
                                    JOINT RightFinger02
                                    {
                                        OFFSET  -2.639450   0.000000   0.000000
                                        CHANNELS 3 Zrotation Xrotation Yrotation
                                        End Site
                                        {
                                            OFFSET  -2.582190   0.000000   0.000000
                                        }
                                    }
                                }
                            }
                            JOINT RightFinger1
                            {
                                OFFSET  -8.364480   0.000000   3.252850
                                CHANNELS 3 Zrotation Xrotation Yrotation
                                JOINT RightFinger11
                                {
                                    OFFSET  -4.646920   0.000000   0.000000
                                    CHANNELS 3 Zrotation Xrotation Yrotation
                                    JOINT RightFinger12
                                    {
                                        OFFSET  -2.323470   0.000000   0.000000
                                        CHANNELS 3 Zrotation Xrotation Yrotation
                                        End Site
                                        {
                                            OFFSET  -2.273050   0.000000   0.000000
                                        }
                                    }
                                }
                            }
                            JOINT RightFinger2
                            {
                                OFFSET  -8.364480   0.000000   1.078090
                                CHANNELS 3 Zrotation Xrotation Yrotation
                                JOINT RightFinger21
                                {
                                    OFFSET  -5.111610   0.000000   0.000000
                                    CHANNELS 3 Zrotation Xrotation Yrotation
                                    JOINT RightFinger22
                                    {
                                        OFFSET  -2.788160   0.000000   0.000000
                                        CHANNELS 3 Zrotation Xrotation Yrotation
                                        End Site
                                        {
                                            OFFSET  -2.727660   0.000000   0.000000
                                        }
                                    }
                                }
                            }
                            JOINT RightFinger3
                            {
                                OFFSET  -7.899780   0.000000  -1.078090
                                CHANNELS 3 Zrotation Xrotation Yrotation
                                JOINT RightFinger31
                                {
                                    OFFSET  -4.646930   0.000000   0.000000
                                    CHANNELS 3 Zrotation Xrotation Yrotation
                                    JOINT RightFinger32
                                    {
                                        OFFSET  -2.323470   0.000000   0.000000
                                        CHANNELS 3 Zrotation Xrotation Yrotation
                                        End Site
                                        {
                                            OFFSET  -2.273050   0.000000   0.000000
                                        }
                                    }
                                }
                            }
                            JOINT RightFinger4
                            {
                                OFFSET  -7.435090   0.000000  -3.252850
                                CHANNELS 3 Zrotation Xrotation Yrotation
                                JOINT RightFinger41
                                {
                                    OFFSET  -3.717550   0.000000   0.000000
                                    CHANNELS 3 Zrotation Xrotation Yrotation
                                    JOINT RightFinger42
                                    {
                                        OFFSET  -1.858760   0.000000   0.000000
                                        CHANNELS 3 Zrotation Xrotation Yrotation
                                        End Site
                                        {
                                            OFFSET  -1.818440   0.000000   0.000000
                                        }
                                    }
                                }
                            }
                        }
                    }
                }
            }
        }
    }
    JOINT LeftHip
    {
        OFFSET   9.782990   0.000000   0.000000
        CHANNELS 3 Zrotation Xrotation Yrotation
        JOINT LeftKnee
        {
            OFFSET  -0.000063 -41.789100   0.001657
            CHANNELS 3 Zrotation Xrotation Yrotation
            JOINT LeftAnkle
            {
                OFFSET   0.000078 -41.133200  -0.000113
                CHANNELS 3 Zrotation Xrotation Yrotation
                JOINT LeftToe
                {
                    OFFSET   0.000000  -6.358970  14.674500
                    CHANNELS 3 Zrotation Xrotation Yrotation
                    End Site
                    {
                        OFFSET   0.000000   0.000000   3.913200
                    }
                }
            }
        }
    }
    JOINT RightHip
    {
        OFFSET  -9.782990   0.000000   0.000000
        CHANNELS 3 Zrotation Xrotation Yrotation
        JOINT RightKnee
        {
            OFFSET   0.000053 -41.789200   0.000277
            CHANNELS 3 Zrotation Xrotation Yrotation
            JOINT RightAnkle
            {
                OFFSET   0.000030 -41.133200  -0.000150
                CHANNELS 3 Zrotation Xrotation Yrotation
                JOINT RightToe
                {
                    OFFSET   0.000000  -6.358960  14.674500
                    CHANNELS 3 Zrotation Xrotation Yrotation
                    End Site
                    {
                        OFFSET   0.000000   0.000000   3.913200
                    }
                }
            }
        }
    }
}
MOTION
Frames: 6
Frame Time:   0.016667
 -0.031910  89.940800  -0.772981  -0.247757  -6.148650   0.431018   0.595333   4.380910  -2.233330   1.368010   8.734890  -4.532200   3.064060   0.136073  -0.006057   5.036870   0.273566   7.142150  -2.708210  -1.042040   7.935720 -63.995400  28.283600 -28.169100  -5.173520 -13.785200 -112.328000 -27.340100 -34.304000   8.593300  63.992700  39.210900 -66.342200  24.695000   0.000000   0.000260  14.999900   0.001682   0.001257 -20.702000  -3.534430   9.265910 -17.172500  -0.001144  -0.000214 -12.020700  -0.002547  -0.003344 -88.978000  -9.910330   0.175950 -91.730700  -0.001508   0.000143 -68.798100   0.006361  -0.000960 -86.618000  -9.895010   0.581670 -86.668400  -0.000921   0.000196 -65.001300   0.012206  -0.000435 -88.984600  -9.996520   0.176310 -110.000000  -0.002750  -0.000853 -80.000000  -0.006507  -0.001829   6.392720   1.871470   9.807760  64.853700  20.280800  22.556400  -4.001250 -21.683100 107.221000  12.482700 -17.082400  12.749100 -45.862500  22.733200  49.702200 -22.576000   0.001107  -0.001081 -15.000500   0.000854  -0.001439  29.116200  -3.402220  -6.079220  23.969800  -0.004066   0.003187  16.778900  -0.003209   0.003596  88.991400  -6.962480  -0.116330  95.433600  -0.003558   0.008248  71.575200   0.007169  -0.006319  88.991300  -6.962460  -0.116330  95.271700   0.001774   0.003056  71.453800   0.006474  -0.002923  88.984700  -9.996900  -0.176325 110.000000   0.000000  -0.004575  79.993900   0.000000   0.002540  -0.172405   5.490270   0.060196   0.021109   2.189080  12.311100  -3.956120  -3.412070   2.121550   0.000000   0.000000   0.000000   2.023360   5.697140  -7.860380   0.147639   2.974460  -8.096130  -9.239900  -0.139744   2.125270  -0.000000   0.000000   0.000000
 -0.031702  89.941100  -0.778969  -0.240362  -6.161050   0.453600   0.595046   4.384810  -2.233270   1.367440   8.742720  -4.532130   3.066790   0.135208  -0.006202   5.040140   0.271833   7.129480  -2.745900  -1.014980   7.898580 -63.946300  28.340500 -28.226000  -5.124680 -13.699400 -112.276000 -27.289300 -34.125500   8.658340  64.154500  39.308200 -66.598100  24.695000   0.000000   0.000205  15.000000   0.001716   0.001248 -20.827600  -3.539550   9.225370 -17.274400  -0.001155  -0.000266 -12.092000  -0.002708  -0.003327 -88.978000  -9.875090   0.176057 -91.602600  -0.001584   0.000070 -68.702000   0.006442  -0.001023 -86.565400  -9.859160   0.588282 -86.616100  -0.000989   0.000195 -64.962100   0.012228  -0.000509 -88.984600  -9.996610   0.176312 -110.000000  -0.002722  -0.000804 -80.000000  -0.006534  -0.001825   6.397870   1.887420   9.842250  64.785900  20.359000  22.593500  -4.009510 -21.547900 107.239000  12.560100 -17.056200  12.752800 -45.906700  22.814200  49.739900 -22.586100   0.001031  -0.001125 -15.000400   0.000783  -0.001468  28.925100  -3.306730  -5.957830  23.807900  -0.004128   0.003224  16.665500  -0.003151   0.003598  88.991700  -6.809850  -0.116979  95.357300  -0.003584   0.008353  71.518000   0.007228  -0.006357  88.991500  -6.809850  -0.116977  95.199600   0.001810   0.003189  71.399700   0.006599  -0.002918  88.984700  -9.996850  -0.176319 110.000000  -0.000000  -0.004511  79.993800   0.000059   0.002480  -0.183524   5.664800   0.055388   0.022380   2.041150  12.290400  -3.950980  -3.426460   2.125590  -0.000000   0.000000  -0.000000   2.019640   5.695810  -7.865120   0.142689   3.000860  -8.099120  -9.240450  -0.150004   2.108630   0.000000   0.000000   0.000000
 -0.031496  89.941700  -0.784281  -0.232304  -6.173170   0.476355   0.593192   4.389380  -2.232770   1.364030   8.751930  -4.531090   3.073330   0.129149  -0.006277   5.049130   0.259662   7.116880  -2.783350  -0.987986   7.859460 -63.920800  28.368600 -28.256100  -5.075950 -13.618900 -112.238000 -27.208800 -33.953700   8.731380  64.334600  39.413800 -66.882000  24.695000   0.000000   0.000157  15.000000   0.001748   0.001239 -20.910200  -3.547080   9.198030 -17.341900  -0.001165  -0.000318 -12.139300  -0.002874  -0.003310 -88.978000  -9.851170   0.176165 -91.472600  -0.001660  -0.000000 -68.604500   0.006530  -0.001089 -86.514900  -9.834850   0.595996 -86.566100  -0.001056   0.000195 -64.924600   0.012248  -0.000584 -88.984600  -9.996700   0.176316 -110.000000  -0.002697  -0.000754 -80.000000  -0.006559  -0.001819   6.405230   1.913410   9.873180  64.755300  20.390900  22.605800  -4.011740 -21.409600 107.279000  12.609400 -17.038700  12.766800 -46.003500  22.930300  49.780400 -22.604800   0.000954  -0.001167 -15.000400   0.000709  -0.001497  28.761200  -3.243600  -5.885780  23.668500  -0.004190   0.003260  16.567900  -0.003088   0.003599  88.991800  -6.716560  -0.117643  95.232500  -0.003611   0.008457  71.424400   0.007287  -0.006396  88.991600  -6.716570  -0.117640  95.081100   0.001849   0.003320  71.310800   0.006722  -0.002915  88.984700  -9.996800  -0.176313 110.000000   0.000000  -0.004446  79.993800   0.000114   0.002421  -0.195254   5.839330   0.048775   0.023477   1.893180  12.271900  -3.943110  -3.441940   2.128870   0.000000   0.000000   0.000000   2.016470   5.695600  -7.867060   0.136715   3.021600  -8.105240  -9.240570  -0.158991   2.091890   0.000000   0.000000   0.000000
 -0.031272  89.942700  -0.789654  -0.222715  -6.183910   0.497870   0.587482   4.394600  -2.228550   1.352500   8.762720  -4.522270   3.084020   0.113246  -0.005828   5.067120   0.227646   7.108870  -2.813180  -0.973482   7.825630 -63.959200  28.344700 -28.229500  -5.042710 -13.544000 -112.228000 -27.146300 -33.846800   8.781000  64.430300  39.464900 -67.032000  24.712000   0.000000   0.000137  15.000000   0.001790   0.001227 -20.820800  -3.563660   9.276190 -17.272000  -0.001156  -0.000372 -12.090400  -0.003048  -0.003292 -88.977700  -9.929090   0.176343 -91.419900  -0.001730  -0.000052 -68.565000   0.006637  -0.001172 -86.490400  -9.912320   0.604989 -86.542700  -0.001138   0.000201 -64.907100   0.012275  -0.000656 -88.984600  -9.996800   0.176322 -110.000000  -0.002677  -0.000714 -80.000000  -0.006583  -0.001806   6.419700   1.933440   9.894570  64.812600  20.339700  22.560900  -4.006880 -21.290300 107.335000  12.629200 -17.024400  12.794200 -46.064100  22.982100  49.749100 -22.623300   0.000873  -0.001199 -15.000300   0.000638  -0.001527  28.733100  -3.241970  -5.886230  23.645300  -0.004236   0.003292  16.551700  -0.003020   0.003600  88.991800  -6.716160  -0.117108  95.138600  -0.003645   0.008547  71.354000   0.007343  -0.006432  88.991700  -6.716150  -0.117151  94.992600   0.001897   0.003457  71.244400   0.006836  -0.002908  88.984700  -9.996730  -0.176320 110.000000   0.000000  -0.004377  79.993800   0.000190   0.002356  -0.207861   5.839040   0.042475   0.023529   1.899820  12.254600  -3.936900  -3.458850   2.132710   0.000000   0.000000   0.000000   2.013240   5.698300  -7.865610   0.131762   3.035200  -8.115270  -9.240810  -0.167418   2.075700  -0.000000   0.000000   0.000000
 -0.031043  89.943700  -0.794870  -0.212310  -6.191240   0.520727   0.580448   4.397730  -2.222030   1.337960   8.769300  -4.508680   3.094570   0.091950  -0.004978   5.083530   0.184803   7.105440  -2.834490  -0.968208   7.807790 -64.035300  28.278400 -28.164100  -5.014110 -13.474600 -112.233000 -27.076000 -33.749700   8.834500  64.595900  39.559200 -67.292300  24.729100   0.000000   0.000133  15.000000   0.001831   0.001216 -20.732200  -3.575050   9.354300 -17.202100  -0.001146  -0.000426 -12.041500  -0.003221  -0.003275 -88.977300 -10.007000   0.176463 -91.383700  -0.001800  -0.000098 -68.537800   0.006746  -0.001259 -86.440200  -9.989780   0.618628 -86.494200  -0.001222   0.000207 -64.870700   0.012301  -0.000727 -88.984600  -9.996900   0.176326 -110.000000  -0.002659  -0.000673 -80.000000  -0.006607  -0.001792   6.436470   1.950990   9.903970  64.928300  20.226200  22.474600  -4.006720 -21.193500 107.390000  12.638400 -17.017500  12.822100 -46.132000  23.046400  49.712900 -22.644800   0.000788  -0.001230 -15.000200   0.000565  -0.001556  28.729200  -3.240330  -5.886680  23.642000  -0.004281   0.003324  16.549400  -0.002953   0.003600  88.991900  -6.715750  -0.116146  95.045500  -0.003679   0.008633  71.284200   0.007397  -0.006467  88.991700  -6.715740  -0.116275  94.900600   0.001942   0.003593  71.175400   0.006950  -0.002904  88.984700  -9.996670  -0.176327 110.000000  -0.000000  -0.004308  79.993800   0.000273   0.002291  -0.220589   5.836950   0.036533   0.020577   1.945600  12.234500  -3.931080  -3.474600   2.137310   0.000000   0.000000  -0.000000   2.009020   5.701010  -7.864160   0.128301   3.048670  -8.122110  -9.241000  -0.175950   2.056940  -0.000000   0.000000  -0.000000
 -0.030827  89.944500  -0.800114  -0.201445  -6.193400   0.545735   0.574051   4.397400  -2.215180   1.324540   8.768820  -4.494350   3.100520   0.067132  -0.004047   5.091520   0.135006   7.106540  -2.841810  -0.971799   7.811170 -64.145600  28.164300 -28.061200  -4.986110 -13.397000 -112.247000 -27.001700 -33.634400   8.910850  64.973400  39.776600 -67.884100  24.713000  -0.000420   0.000312  14.979600   0.001875   0.001210 -20.738000  -3.572930   9.344580 -17.206800  -0.001149  -0.000477 -12.044800  -0.003380  -0.003261 -88.977400  -9.997050   0.175932 -91.354400  -0.001839  -0.000123 -68.515800   0.006838  -0.001297 -86.332500  -9.979510   0.645277 -86.388500  -0.001262   0.000207 -64.791400   0.012325  -0.000765 -88.984600  -9.997020   0.176320 -110.000000  -0.002635  -0.000620 -80.000000  -0.006631  -0.001775   6.455440   1.962970   9.894950  65.085500  20.059700  22.372000  -4.033110 -21.128300 107.428000  12.643400 -17.034100  12.838300 -46.244900  23.186200  49.728900 -22.677200   0.000701  -0.001268 -15.000200   0.000490  -0.001587  28.782600  -3.184230  -5.771170  23.680000  -0.004335   0.003360  16.576000  -0.002898   0.003597  88.992300  -6.587980  -0.115189  94.944400  -0.003700   0.008722  71.208300   0.007452  -0.006502  88.992100  -6.587950  -0.115420  94.789700   0.001974   0.003722  71.092200   0.007079  -0.002904  88.984700  -9.996620  -0.176321 110.000000   0.000000  -0.004241  79.993800   0.000352   0.002229  -0.232475   5.592030   0.031927   0.017342   2.221780  12.208300  -3.925650  -3.485690   2.145380  -0.000000   0.000000   0.000000   2.000870   5.692820  -7.865430   0.128067   3.071300  -8.122230  -9.241090  -0.185873   2.031890   0.000000   0.000000   0.000000
